<?xml version="1.0" encoding="utf-8"?>
<!-- Generator: Adobe Illustrator 19.1.0, SVG Export Plug-In . SVG Version: 6.00 Build 0)  -->
<svg version="1.1" id="Capa_1" xmlns="http://www.w3.org/2000/svg" xmlns:xlink="http://www.w3.org/1999/xlink" x="0px" y="0px"
	 viewBox="-477 28.8 44.2 44.2" style="enable-background:new -477 28.8 44.2 44.2;" xml:space="preserve">
<style type="text/css">
	.st0{fill:#FFFFFF;}
</style>
<g>
	<g>
		<path class="st0" d="M-477,50.9c0-12.2,9.9-22.1,22.1-22.1c12.2,0,22.1,9.9,22.1,22.1S-442.7,73-454.9,73
			C-467.1,73-477,63.1-477,50.9z M-434.3,50.9c0-11.4-9.2-20.6-20.6-20.6s-20.6,9.2-20.6,20.6s9.2,20.6,20.6,20.6
			S-434.3,62.3-434.3,50.9z"/>
		<path class="st0" d="M-462.6,48.1c0-0.2,0.1-0.4,0.2-0.5c0.3-0.3,0.8-0.3,1.1,0l6.8,6.8l6.8-6.8c0.3-0.3,0.8-0.3,1.1,0
			c0.3,0.3,0.3,0.8,0,1.1L-454,56c-0.3,0.3-0.8,0.3-1.1,0l-7.3-7.3C-462.6,48.5-462.6,48.3-462.6,48.1z"/>
	</g>
</g>
</svg>
